<?xml version="1.0" encoding="UTF-8" standalone="no"?>
<svg width="20px" height="18px" viewBox="0 0 20 18" version="1.1" xmlns="http://www.w3.org/2000/svg" xmlns:xlink="http://www.w3.org/1999/xlink">
    <!-- Generator: Sketch 3.8.3 (29802) - http://www.bohemiancoding.com/sketch -->
    <title>download</title>
    <desc>Created with Sketch.</desc>
    <defs></defs>
    <g id="Page-1" stroke="none" stroke-width="1" fill="none" fill-rule="evenodd">
        <g id="entypo/download" transform="translate(0.000000, -1.000000)">
            <rect id="Rectangle-path" x="0" y="0" width="20" height="20"></rect>
            <path d="M19.25,12.756 L16.098,10.635 L14.155,10.635 L17.521,13.219 L14.012,13.219 C13.91,13.219 13.82,13.27 13.775,13.35 L12.965,15.563 L7.04,15.563 L6.23,13.35 C6.185,13.27 6.094,13.219 5.994,13.219 L2.484,13.219 L5.851,10.635 L3.907,10.635 L0.756,12.756 C0.286,13.036 0.006,13.682 0.132,14.192 L0.688,17.235 C0.814,17.744 1.372,18.161 1.927,18.161 L18.079,18.161 C18.634,18.161 19.191,17.744 19.318,17.235 L19.873,14.192 C20,13.682 19.719,13.036 19.25,12.756 L19.25,12.756 Z M15.151,6.398 L11.883,6.398 L11.883,1.328 L8.121,1.328 L8.121,6.398 L4.853,6.398 L10.001,11.229 L15.151,6.398 L15.151,6.398 Z" id="Shape" fill="#5B67BE" fill-rule="evenodd"></path>
        </g>
    </g>
</svg>