<?xml version="1.0" encoding="UTF-8" standalone="no"?>
<svg width="25px" height="22px" viewBox="0 0 25 22" version="1.1" xmlns="http://www.w3.org/2000/svg" xmlns:xlink="http://www.w3.org/1999/xlink">
    <!-- Generator: Sketch 3.8.3 (29802) - http://www.bohemiancoding.com/sketch -->
    <title>dashboard conversions</title>
    <desc>Created with Sketch.</desc>
    <defs></defs>
    <g id="Page-1" stroke="none" stroke-width="1" fill="none" fill-rule="evenodd">
        <g id="dashboard-conversions" fill="#D80027">
            <g id="Capa_1">
                <path d="M22.8070175,0 C21.597807,0 20.6140351,0.967568627 20.6140351,2.15686275 L20.6140351,3.13521569 L3.49298246,8.47431373 C3.4127193,7.59517647 2.66842105,6.90196078 1.75438596,6.90196078 C0.786842105,6.90196078 0,7.67584314 0,8.62745098 L0,13.372549 C0,14.3241569 0.786842105,15.0980392 1.75438596,15.0980392 C2.66842105,15.0980392 3.4127193,14.4048235 3.49298246,13.5256863 L4.97017544,13.9863922 C4.74824561,14.1826667 4.56973684,14.4307059 4.47105263,14.7292157 C4.32719298,15.1666275 4.36535088,15.6338039 4.57894737,16.0453333 C4.79210526,16.4568627 5.15482456,16.7614118 5.59912281,16.9024706 L11.8578947,18.8967059 C12.0346491,18.9532157 12.2166667,18.9808235 12.3973684,18.9808235 C12.6714912,18.9808235 12.9438596,18.9169804 13.1951754,18.7905882 C13.6135965,18.5809412 13.9232456,18.2241961 14.0671053,17.7872157 C14.1701754,17.4736078 14.1763158,17.144902 14.0947368,16.8321569 L20.6140351,18.8647843 L20.6140351,19.8431373 C20.6140351,21.0324314 21.597807,22 22.8070175,22 C24.0162281,22 25,21.0324314 25,19.8431373 L25,2.15686275 C25,0.967568627 24.0162281,0 22.8070175,0 L22.8070175,0 Z M13.2333333,17.5206275 C13.1614035,17.738902 13.0061404,17.9170588 12.7969298,18.0218824 C12.5877193,18.1271373 12.35,18.1456863 12.1289474,18.0758039 L5.86973684,16.0815686 C5.64824561,16.0108235 5.46710526,15.858549 5.36052632,15.6523529 C5.25350877,15.4461569 5.23377193,15.2127843 5.30570175,14.9953725 C5.42587719,14.6304314 5.77105263,14.3983529 6.14122807,14.3983529 C6.23026316,14.3983529 6.32105263,14.4117255 6.41008772,14.4401961 L12.6692982,16.4344314 C13.129386,16.581098 13.3824561,17.0681176 13.2333333,17.5206275 L13.2333333,17.5206275 Z M2.63157895,13.372549 C2.63157895,13.8483529 2.23815789,14.2352941 1.75438596,14.2352941 C1.27061404,14.2352941 0.877192982,13.8483529 0.877192982,13.372549 L0.877192982,8.62745098 C0.877192982,8.15164706 1.27061404,7.76470588 1.75438596,7.76470588 C2.23815789,7.76470588 2.63157895,8.15164706 2.63157895,8.62745098 L2.63157895,8.74305882 L2.63157895,13.2573725 L2.63157895,13.372549 L2.63157895,13.372549 Z M3.50877193,12.6254118 L3.50877193,9.37501961 L20.6140351,4.04066667 L20.6140351,17.9601961 L3.50877193,12.6254118 L3.50877193,12.6254118 Z M24.122807,19.8431373 C24.122807,20.5566275 23.5324561,21.1372549 22.8070175,21.1372549 C22.0815789,21.1372549 21.4912281,20.5566275 21.4912281,19.8431373 L21.4912281,19.1382745 L21.4912281,2.86172549 L21.4912281,2.15686275 C21.4912281,1.44337255 22.0815789,0.862745098 22.8070175,0.862745098 C23.5324561,0.862745098 24.122807,1.44337255 24.122807,2.15686275 L24.122807,19.8431373 L24.122807,19.8431373 Z" id="Shape"></path>
            </g>
        </g>
    </g>
</svg>