<?xml version="1.0" encoding="UTF-8" standalone="no"?>
<svg width="17px" height="18px" viewBox="0 0 17 18" version="1.1" xmlns="http://www.w3.org/2000/svg" xmlns:xlink="http://www.w3.org/1999/xlink">
    <!-- Generator: Sketch 3.8.3 (29802) - http://www.bohemiancoding.com/sketch -->
    <title>plus2</title>
    <desc>Created with Sketch.</desc>
    <defs></defs>
    <g id="Page-1" stroke="none" stroke-width="1" fill="none" fill-rule="evenodd">
        <g id="entypo/plus2" transform="translate(-2.000000, -1.000000)">
            <rect id="Rectangle-path" x="0" y="0" width="20" height="20"></rect>
            <path d="M10.419,1.615 C5.825,1.615 2.102,5.339 2.102,9.932 C2.102,14.525 5.826,18.249 10.419,18.249 C15.012,18.249 18.735,14.525 18.735,9.932 C18.735,5.339 15.012,1.615 10.419,1.615 L10.419,1.615 Z M11.431,10.944 L11.431,14.932 L9.407,14.932 L9.407,10.944 L5.42,10.944 L5.42,8.92 L9.407,8.92 L9.407,4.932 L11.431,4.932 L11.431,8.919 L15.418,8.919 L15.419,10.943 L11.431,10.943 L11.431,10.944 Z" id="Shape" fill="#5B67BE" fill-rule="evenodd"></path>
        </g>
    </g>
</svg>