<?xml version="1.0" encoding="UTF-8" standalone="no"?>
<svg width="25px" height="25px" viewBox="0 0 25 25" version="1.1" xmlns="http://www.w3.org/2000/svg" xmlns:xlink="http://www.w3.org/1999/xlink">
    <!-- Generator: Sketch 3.8.3 (29802) - http://www.bohemiancoding.com/sketch -->
    <title>Calendar-Time</title>
    <desc>Created with Sketch.</desc>
    <defs></defs>
    <g id="Page-1" stroke="none" stroke-width="1" fill="none" fill-rule="evenodd">
        <g id="Calendar-Time" fill="#5B67BE">
            <g id="Layer_1">
                <path d="M3.125,3.90625 L3.125,0.78125 C3.125,0.349414063 3.47441406,0 3.90625,0 C4.33808594,0 4.6875,0.349414062 4.6875,0.78125 L4.6875,3.90625 C4.6875,4.33808594 4.33808594,4.6875 3.90625,4.6875 C3.47441406,4.6875 3.125,4.33808594 3.125,3.90625 L3.125,3.90625 Z M16.40625,4.6875 C16.8380859,4.6875 17.1875,4.33808594 17.1875,3.90625 L17.1875,0.78125 C17.1875,0.349414063 16.8380859,0 16.40625,0 C15.9744141,0 15.625,0.349414062 15.625,0.78125 L15.625,3.90625 C15.625,4.33808594 15.9744141,4.6875 16.40625,4.6875 L16.40625,4.6875 Z M25,18.75 C25,22.2015625 22.2015137,25 18.75,25 C15.2984863,25 12.5,22.2015137 12.5,18.75 C12.5,15.2984863 15.2984863,12.5 18.75,12.5 C22.2015137,12.5 25,15.2984863 25,18.75 L25,18.75 Z M23.4375,18.75 C23.4375,16.1651367 21.3348145,14.0625 18.75,14.0625 C16.1651855,14.0625 14.0625,16.1651855 14.0625,18.75 C14.0625,21.3348145 16.1651855,23.4375 18.75,23.4375 C21.3348145,23.4375 23.4375,21.3348633 23.4375,18.75 L23.4375,18.75 Z M6.25,9.375 L3.125,9.375 L3.125,12.5 L6.25,12.5 L6.25,9.375 L6.25,9.375 Z M3.125,17.1875 L6.25,17.1875 L6.25,14.0625 L3.125,14.0625 L3.125,17.1875 L3.125,17.1875 Z M7.8125,12.5 L10.9375,12.5 L10.9375,9.375 L7.8125,9.375 L7.8125,12.5 L7.8125,12.5 Z M7.8125,17.1875 L10.9375,17.1875 L10.9375,14.0625 L7.8125,14.0625 L7.8125,17.1875 L7.8125,17.1875 Z M1.5625,18.5943848 L1.5625,7.8125 L18.75,7.8125 L18.75,10.9375 L20.3125,10.9375 L20.3125,4.84316406 C20.3125,3.89404297 19.5556641,3.125 18.6203125,3.125 L17.96875,3.125 L17.96875,3.90625 C17.96875,4.7668457 17.2683594,5.46875 16.40625,5.46875 C15.5441406,5.46875 14.84375,4.7668457 14.84375,3.90625 L14.84375,3.125 L5.46875,3.125 L5.46875,3.90625 C5.46875,4.7668457 4.76835938,5.46875 3.90625,5.46875 C3.04414062,5.46875 2.34375,4.7668457 2.34375,3.90625 L2.34375,3.125 L1.69296875,3.125 C0.757617187,3.125 0,3.89404297 0,4.84316406 L0,18.5943848 C0,19.5404297 0.757617187,20.3125 1.69296875,20.3125 L10.9375,20.3125 L10.9375,18.75 L1.69296875,18.75 C1.62202148,18.75 1.5625,18.6767578 1.5625,18.5943848 L1.5625,18.5943848 Z M15.625,12.5 L15.625,9.375 L12.5,9.375 L12.5,12.5 L15.625,12.5 L15.625,12.5 Z M21.09375,18.75 L18.75,18.75 L18.75,16.40625 C18.75,15.9744141 18.4005859,15.625 17.96875,15.625 C17.5369141,15.625 17.1875,15.9744141 17.1875,16.40625 L17.1875,19.53125 C17.1875,19.9630859 17.5369141,20.3125 17.96875,20.3125 L21.09375,20.3125 C21.5255859,20.3125 21.875,19.9630859 21.875,19.53125 C21.875,19.0994141 21.5255859,18.75 21.09375,18.75 L21.09375,18.75 Z" id="Shape"></path>
            </g>
        </g>
    </g>
</svg>