<?xml version="1.0" encoding="UTF-8" standalone="no"?>
<svg width="21px" height="40px" viewBox="0 0 21 40" version="1.1" xmlns="http://www.w3.org/2000/svg" xmlns:xlink="http://www.w3.org/1999/xlink">
    <!-- Generator: Sketch 3.8.3 (29802) - http://www.bohemiancoding.com/sketch -->
    <title>dashboard my revenue</title>
    <desc>Created with Sketch.</desc>
    <defs></defs>
    <g id="Page-1" stroke="none" stroke-width="1" fill="none" fill-rule="evenodd">
        <g id="dashboard-my-revenue" fill="#006DF0">
            <g id="Capa_1">
                <path d="M20.6286604,24.3339844 C20.4350373,23.6803125 20.2001194,23.1114062 19.9242201,22.6282812 C19.6484776,22.1446875 19.2535522,21.6729687 18.7386604,21.2115625 C18.2243955,20.7503906 17.7617687,20.3789844 17.3515634,20.0966406 C16.9415933,19.8140625 16.3784328,19.498125 15.6623955,19.1484375 C14.9469851,18.7988281 14.3801418,18.5386719 13.9628843,18.3675781 C13.5450784,18.1967187 12.9407015,17.9625 12.1501455,17.6650781 C11.4492313,17.3975781 10.9273657,17.1930469 10.584,17.051875 C10.2410261,16.9105469 9.78999627,16.7099219 9.23067537,16.4495312 C8.67158955,16.1895312 8.2539403,15.9589062 7.97796269,15.7582812 C7.70206343,15.5576562 7.40759328,15.3123437 7.09431716,15.0224219 C6.78104104,14.7325 6.56108955,14.4239062 6.43422761,14.0967969 C6.3076791,13.7696094 6.24420896,13.4126562 6.24420896,13.0260156 C6.24420896,12.0150781 6.69147761,11.1895312 7.58632836,10.5503125 C8.48125746,9.91109375 9.63727612,9.59132812 11.0542276,9.59132812 C11.6803097,9.59132812 12.3186157,9.67671875 12.9669515,9.84789062 C13.6152873,10.0190625 14.1709254,10.211875 14.6333172,10.4276562 C15.0961007,10.6434375 15.5321642,10.8814062 15.9424478,11.1414844 C16.352653,11.4017969 16.6433619,11.5986719 16.8150448,11.7325 C16.9865709,11.8664062 17.0952537,11.9555469 17.1395261,12.0002344 C17.3336978,12.1489062 17.5345299,12.2008594 17.7433545,12.1564062 C17.9669888,12.1415625 18.1386716,12.0224219 18.2582463,11.7996094 L20.0706716,8.54304687 C20.2495634,8.24578125 20.2125784,7.96320312 19.9588545,7.69539062 C19.8692127,7.60617187 19.7577873,7.5021875 19.6226194,7.383125 C19.4887836,7.2640625 19.1978396,7.04851562 18.7500224,6.73609375 C18.3026754,6.42390625 17.8291567,6.14507812 17.3298582,5.8996875 C16.8300112,5.65453125 16.1810485,5.4053125 15.3830485,5.15265625 C14.5855187,4.89960937 13.7612687,4.72875 12.9109254,4.63960937 L12.9109254,0.71375 C12.9109254,0.505703125 12.8439291,0.334609375 12.7100933,0.200703125 C12.575944,0.067109375 12.4043396,0 12.1952015,0 L9.17480597,0 C8.98094776,0 8.81318284,0.070546875 8.67151119,0.211875 C8.52983955,0.353203125 8.45900373,0.520390625 8.45900373,0.71375 L8.45900373,4.72867187 C6.11734701,5.17460937 4.21575,6.1709375 2.75413433,7.71742187 C1.29267537,9.26398437 0.561671642,11.0629687 0.561671642,13.1152344 C0.561671642,13.7248437 0.625298507,14.3047656 0.75208209,14.8546875 C0.878708955,15.4050781 1.03542537,15.8995312 1.22191791,16.338125 C1.40825373,16.7770312 1.67310448,17.208125 2.01607836,17.6320312 C2.35905224,18.0557812 2.68353358,18.4201562 2.98920896,18.7248437 C3.29504104,19.0294531 3.69404104,19.3455469 4.18605224,19.6725781 C4.67837687,19.9999219 5.09970896,20.2640625 5.45028358,20.4646875 C5.80093657,20.6646875 6.26693284,20.8959375 6.8484291,21.1555469 C7.43008209,21.4159375 7.8888694,21.6127344 8.22447761,21.746875 C8.56008582,21.8805469 9.01863806,22.0666406 9.60052612,22.3040625 C10.4058134,22.6163281 11.0025112,22.8580469 11.3902276,23.0291406 C11.7782575,23.2002344 12.2702687,23.438125 12.8672015,23.7429687 C13.4635858,24.0475 13.8996493,24.3264062 14.1757836,24.5792969 C14.4516828,24.8321875 14.7014104,25.1444531 14.9252799,25.5160937 C15.1491493,25.8877344 15.2612799,26.2817969 15.2612799,26.6983594 C15.2612799,27.873125 14.8026493,28.78 13.885153,29.4189062 C12.9680485,30.0585156 11.905041,30.3782031 10.6971493,30.3782031 C10.1458209,30.3782031 9.59355224,30.3190625 9.04191045,30.2001562 C7.10301493,29.8130469 5.29098134,28.8836719 3.60565299,27.4116406 L3.56091045,27.3670312 C3.42660448,27.2039062 3.24755597,27.136875 3.02407836,27.1667969 C2.78539925,27.1964844 2.61379478,27.2857812 2.5095,27.4347656 L0.205141791,30.4457031 C-0.0186492537,30.7430469 -0.0035261194,31.0478125 0.249962687,31.3600781 C0.32463806,31.449375 0.455104478,31.5835156 0.641440299,31.7616406 C0.828246269,31.9404687 1.1750597,32.2188281 1.6818806,32.59875 C2.18885821,32.978125 2.74073507,33.3345312 3.33743284,33.6695312 C3.93405224,34.0039844 4.69083582,34.3346875 5.60825373,34.6619531 C6.52567164,34.9886719 7.47623507,35.2190625 8.46064925,35.3528125 L8.46064925,39.2561719 C8.46064925,39.4497656 8.53156343,39.616875 8.67315672,39.7582812 C8.81490672,39.8997656 8.98259328,39.9700781 9.17645149,39.9700781 L12.196847,39.9700781 C12.4059851,39.9700781 12.5775896,39.9032812 12.7116604,39.7696094 C12.8457313,39.6359375 12.9124925,39.4648437 12.9124925,39.25625 L12.9124925,35.3528906 C15.2843172,34.9663281 17.2120075,33.9514062 18.6957985,32.3082031 C20.1797463,30.665 20.9219552,28.7058594 20.9219552,26.4309375 C20.9211716,25.6875781 20.8243993,24.9886719 20.6286604,24.3339844 L20.6286604,24.3339844 Z" id="Shape"></path>
            </g>
        </g>
    </g>
</svg>