<?xml version="1.0" encoding="UTF-8" standalone="no"?>
<svg width="39px" height="29px" viewBox="0 0 39 29" version="1.1" xmlns="http://www.w3.org/2000/svg" xmlns:xlink="http://www.w3.org/1999/xlink">
    <!-- Generator: Sketch 3.8.3 (29802) - http://www.bohemiancoding.com/sketch -->
    <title>menu dashboard</title>
    <desc>Created with Sketch.</desc>
    <defs></defs>
    <g id="Page-1" stroke="none" stroke-width="1" fill="none" fill-rule="evenodd">
        <g id="menu-dashboard" fill="none">
            <g id="Capa_1">
                <g id="Group">
                    <path d="M20.1807273,20.4981818 C21.0592727,20.4981818 21.7730909,19.781 21.7730909,18.9015455 C21.7730909,18.024 21.0592727,17.3118182 20.1807273,17.3118182 L12.9660909,12.0053636 L18.5882727,19.004 C18.6404545,19.8370909 19.3345455,20.4981818 20.1807273,20.4981818 L20.1807273,20.4981818 Z" id="Shape"></path>
                    <rect id="Rectangle-path" x="11.5461818" y="25.1997273" width="15.903" height="3.77390909"></rect>
                    <path d="M33.2845455,5.73245455 C29.6018182,2.04981818 24.7055455,0.0217272727 19.4976364,0.0217272727 C14.2896364,0.0217272727 9.39327273,2.04981818 5.71063636,5.73245455 C2.028,9.41509091 0,14.3113636 0,19.5193636 C0,22.8820909 0.847181818,26.1138182 2.43781818,28.9736364 L6.082,28.9736364 L8.74736364,27.4346364 L7.57027273,25.3957273 L4.143,27.3746364 C2.93218182,25.0171818 2.24818182,22.3467273 2.24818182,19.5193636 C2.24818182,19.019 2.27090909,18.5238182 2.31281818,18.0340909 L6.39936364,18.7546364 L6.80818182,16.4360909 L2.67354545,15.7070909 C3.41236364,12.445 5.07818182,9.531 7.37854545,7.25727273 L10.1799091,10.5959091 L11.9834545,9.08263636 L9.16081818,5.71881818 C11.7490909,3.77527273 14.8997273,2.54263636 18.3205455,2.31109091 L18.3205455,6.77627273 L20.6747273,6.77627273 L20.6747273,2.31109091 C24.0955455,2.54281818 27.2461818,3.77536364 29.8345455,5.71890909 L27.0118182,9.08263636 L28.8152727,10.5959091 L31.6167273,7.25718182 C33.917,9.531 35.5828182,12.445 36.3216364,15.707 L32.1870909,16.4361818 L32.596,18.7545455 L36.6822727,18.0339091 C36.7241818,18.5237273 36.7469091,19.0188182 36.7469091,19.5191818 C36.7469091,22.3467273 36.0631818,25.0172727 34.8521818,27.3745455 L31.4248182,25.3958182 L30.2478182,27.4346364 L32.9130909,28.9734545 L36.5574545,28.9734545 C38.1481818,26.1136364 38.9952727,22.8819091 38.9952727,19.5191818 C38.9953636,14.3112727 36.9670909,9.41490909 33.2845455,5.73245455 L33.2845455,5.73245455 Z" id="Shape"></path>
                </g>
            </g>
        </g>
    </g>
</svg>