<?xml version="1.0" encoding="UTF-8" standalone="no"?>
<svg width="35px" height="30px" viewBox="0 0 35 30" version="1.1" xmlns="http://www.w3.org/2000/svg" xmlns:xlink="http://www.w3.org/1999/xlink">
    <!-- Generator: Sketch 3.8.3 (29802) - http://www.bohemiancoding.com/sketch -->
    <title>menu campaigns</title>
    <desc>Created with Sketch.</desc>
    <defs></defs>
    <g id="Page-1" stroke="none" stroke-width="1" fill="none" fill-rule="evenodd">
        <g id="menu-campaigns" fill="#000000">
            <g id="Capa_1">
                <path d="M34.2427148,10.7220682 C33.7546973,10.2355909 33.1658496,9.99211364 32.4759668,9.99211364 L32.4764453,9.99211364 L32.4764453,2.51706818 C32.4764453,1.84206818 32.2289844,1.25815909 31.7348828,0.765 C31.2405762,0.271840909 30.6542578,0.0252272727 29.9780469,0.0252272727 C23.9798535,5.00856818 18.1506445,7.50040909 12.4906934,7.50040909 L3.12279297,7.50040909 C2.2640625,7.50040909 1.52878906,7.80525 0.917246094,8.41527273 C0.305634766,9.02543182 0,9.75879545 0,10.6150909 L0,14.3525455 C0,15.2091136 0.30515625,15.9424773 0.916835937,16.5523636 C1.52831055,17.1627273 2.26358398,17.4672273 3.12238281,17.4672273 L5.50354492,17.4672273 C5.28240234,18.1684091 5.13918945,18.8856818 5.07424805,19.6182955 C5.009375,20.3516591 4.98654297,20.9905227 5.00595703,21.5358409 C5.02537109,22.0808864 5.123125,22.7361136 5.29874023,23.5018636 C5.47428711,24.2674773 5.6240625,24.8449091 5.74765625,25.2340909 C5.87118164,25.62375 6.0794043,26.2367045 6.37211914,27.0736364 C6.66476562,27.9107727 6.85671875,28.4784545 6.94770508,28.7768864 C7.54612305,29.3219318 8.40485352,29.6822045 9.52382812,29.8572273 C10.6431445,30.0319773 11.7392187,29.9577955 12.812666,29.63325 C13.8860449,29.3089091 14.6114746,28.7699318 14.98875,28.0176818 C14.494375,27.6282273 14.0943359,27.3006136 13.7886328,27.0344318 C13.482793,26.7684545 13.1705957,26.4443864 12.8516992,26.0614091 C12.5328027,25.6787727 12.3151465,25.3217045 12.1979785,24.9908864 C12.0809473,24.66 12.0418457,24.2837045 12.0809473,23.8616591 C12.1199121,23.43975 12.2696191,23.0146364 12.5298633,22.5867273 C12.0354883,22.0804091 11.7749707,21.4802727 11.7491309,20.7859091 C11.723291,20.0919545 11.9249512,19.4395909 12.354248,18.8297045 C12.7834766,18.2198182 13.3757422,17.7913636 14.130293,17.5449545 C19.2700293,17.9731364 24.5525,20.4387273 29.978252,24.9422045 C30.6545312,24.9422045 31.2407812,24.6955909 31.7346094,24.2022955 C32.2291211,23.7094773 32.4761719,23.1252273 32.4761719,22.4505 L32.4761719,14.9755909 C33.1663281,14.9755909 33.7551074,14.7323864 34.2429199,14.2456364 C34.730459,13.7588864 34.9746387,13.1716364 34.9746387,12.4840227 C34.9744336,11.7961364 34.7302539,11.2088182 34.2427148,10.7220682 L34.2427148,10.7220682 Z M29.9781152,21.7497955 C24.8904004,17.8697727 19.8944238,15.6566591 14.9891602,15.1118864 L14.9891602,9.85575 C19.8551855,9.32365909 24.8518457,7.09806818 29.9781152,3.17890909 L29.9781152,21.7497955 L29.9781152,21.7497955 Z" id="Shape"></path>
            </g>
        </g>
    </g>
</svg>