<?xml version="1.0" encoding="UTF-8" standalone="no"?>
<svg width="18px" height="18px" viewBox="0 0 18 18" version="1.1" xmlns="http://www.w3.org/2000/svg" xmlns:xlink="http://www.w3.org/1999/xlink">
    <!-- Generator: Sketch 3.8.3 (29802) - http://www.bohemiancoding.com/sketch -->
    <title>settings</title>
    <desc>Created with Sketch.</desc>
    <defs></defs>
    <g id="Page-1" stroke="none" stroke-width="1" fill="none" fill-rule="evenodd">
        <path d="M3.6,12.33 L1.215,14.715 L3.285,16.785 L5.67,14.4 C6.195,14.64 6.81,14.805 7.5,14.895 L7.5,15 L7.5,18 L10.5,18 L10.5,15 L10.5,14.895 C11.19,14.805 11.805,14.64 12.33,14.4 L14.715,16.785 L16.785,14.715 L14.385,12.33 C14.64,11.805 14.805,11.19 14.895,10.5 L16.5,10.5 L18,10.5 L18,7.5 L16.5,7.5 L14.895,7.5 C14.805,6.81 14.64,6.195 14.385,5.67 L16.785,3.285 L14.715,1.215 L12.33,3.6 C11.805,3.36 11.19,3.195 10.5,3.09 L10.5,3 L10.5,0 L7.5,0 L7.5,3 L7.5,3.09 C6.81,3.195 6.195,3.36 5.67,3.6 L3.285,1.215 L1.215,3.285 L3.6,5.67 C3.36,6.195 3.195,6.81 3.09,7.5 L0,7.5 L0,10.5 L3.09,10.5 C3.195,11.19 3.36,11.805 3.6,12.33 Z M6,10.125 L6,7.875 L7.875,6 L10.125,6 L12,7.875 L12,10.125 L10.125,12 L7.875,12 L6,10.125 L6,10.125 Z" id="settings" fill="#000000"></path>
    </g>
</svg>