<?xml version="1.0" encoding="UTF-8" standalone="no"?>
<svg width="25px" height="17px" viewBox="0 0 25 17" version="1.1" xmlns="http://www.w3.org/2000/svg" xmlns:xlink="http://www.w3.org/1999/xlink">
    <!-- Generator: Sketch 3.8.3 (29802) - http://www.bohemiancoding.com/sketch -->
    <title>affiliate</title>
    <desc>Created with Sketch.</desc>
    <defs></defs>
    <g id="Page-1" stroke="none" stroke-width="1" fill="none" fill-rule="evenodd">
        <path d="M11.6757571,7.328722 C11.2260639,8.59683794 10.0435374,9.37088274 10.0435374,9.37088274 C10.0435374,9.37088274 9.94360556,10.326087 9.92695025,10.5566535 C9.94360556,10.6554677 9.97691616,12.1376812 12.9082496,12.5658762 C14.6404012,12.8787879 15.8728936,13.4057971 16.1726891,14.4433465 C16.7223141,14.9703557 16.5224505,16.6172596 16.5224505,16.6172596 L0.000389313159,16.6172596 C0.000389313159,16.6172596 -0.032921294,14.9703557 0.516703724,14.4433465 C1.06632874,13.9328063 1.13294996,12.9940711 4.06428339,12.5658762 C6.99561682,12.1376812 6.64585545,10.6060606 6.74578727,10.6554677 C6.72913196,10.0790514 6.66251075,9.27206851 6.66251075,9.27206851 C6.66251075,9.27206851 5.28012055,8.62977602 4.83042735,7.36166008 C3.89773035,6.9828722 4.01431748,6.75230567 3.93104096,6.25823452 C3.93104096,6.25823452 3.6479008,4.29841897 4.28080234,4.33135705 C4.28080234,4.33135705 5.0469463,4.33135705 4.94701448,3.88669302 C4.91370387,3.12911726 4.98032509,3.12911726 5.030291,2.61857708 C5.08025691,2.12450593 5.44667359,0.82345191 6.51261302,0.625823452 C7.57855245,0.411725955 6.72913196,0.527009223 7.09554864,0.477602108 C7.44531002,0.411725955 7.3453782,0.214097497 7.99493504,0.214097497 L8.42797293,0 C9.09418507,0 9.36066993,1.48221344 9.71043131,1.53162055 C10.0601927,1.58102767 10.1434692,1.36693017 10.8763026,1.51515152 C11.942242,1.71277997 11.5758253,1.74571805 11.6257912,2.25625823 C11.6924124,2.75032938 11.775689,3.07971014 11.6757571,3.52437418 C11.55917,3.96903821 12.5085223,3.91963109 12.5085223,3.91963109 C13.2746663,3.91963109 13.0248367,6.30764163 13.0248367,6.30764163 C12.9082496,6.81818182 12.3752799,6.88405797 11.6757571,7.328722 L11.6757571,7.328722 Z M19.2539203,16.6007905 C19.2539203,16.6007905 19.2705756,15.8432148 18.6543293,14.1633729 C18.2212914,13.5210804 17.6050452,12.928195 16.7223141,12.4176548 C16.7056588,11.9729908 16.6723482,11.3142292 16.6723482,11.3142292 C16.6723482,11.3142292 15.6064088,10.8201581 15.2566474,9.84848485 C14.5404693,9.5685112 14.6404012,9.37088274 14.57378,9.0085639 C14.57378,9.0085639 14.3406057,7.49341238 14.8402648,7.52635046 C14.8402648,7.52635046 15.2566474,7.52635046 15.1733709,7.18050066 C15.1400603,6.60408432 15.0900944,5.50065876 15.123405,5.10540184 C15.1733709,4.72661397 15.3066133,3.68906456 16.1227232,3.54084321 C16.9388331,3.39262187 16.7223141,3.45849802 16.988799,3.42555995 C17.2552838,3.39262187 17.1886626,3.22793149 17.6883217,3.22793149 L18.7376059,3.06324111 C19.237265,3.06324111 19.570371,3.75494071 19.8368559,3.80434783 C20.1033407,3.8372859 20.0367195,3.68906456 20.5863445,3.78787879 C21.4024544,3.93610013 21.2858673,5.03952569 21.3191779,5.41831357 C21.3691438,5.79710145 21.3857991,6.91699605 21.3191779,7.26284585 C21.2359014,7.60869565 21.4857309,7.57575758 21.4857309,7.57575758 C22.0520113,7.57575758 22.0187007,9.04150198 22.0187007,9.04150198 C21.9354241,9.43675889 21.7189052,9.48616601 21.1859355,9.81554677 C20.8361741,10.78722 19.9201324,11.3801054 19.9201324,11.3801054 C19.9201324,11.3801054 19.8368559,12.1212121 19.8368559,12.3023715 C19.8535112,12.3682477 19.403818,13.5046113 21.652284,13.8339921 C23.90075,14.1633729 24.2005454,14.7397892 24.5503068,15.2009223 C24.8001364,15.497365 25,16.6666667 25,16.6666667 C25,16.6666667 22.1852537,16.6007905 19.2539203,16.6007905 L19.2539203,16.6007905 Z" id="affiliate" fill="#5B67BE"></path>
    </g>
</svg>