<?xml version="1.0" encoding="UTF-8" standalone="no"?>
<svg width="18px" height="21px" viewBox="0 0 18 21" version="1.1" xmlns="http://www.w3.org/2000/svg" xmlns:xlink="http://www.w3.org/1999/xlink">
    <!-- Generator: Sketch 3.8.3 (29802) - http://www.bohemiancoding.com/sketch -->
    <title>pages</title>
    <desc>Created with Sketch.</desc>
    <defs></defs>
    <g id="Page-1" stroke="none" stroke-width="1" fill="none" fill-rule="evenodd">
        <path d="M0,2.76923077 L0,4.15384615 L0,5.53846154 L0,19.3846154 L1.38461538,20.7692308 L13.8461538,20.7692308 L16.6153846,20.7692308 L18,19.3846154 L18,9.69230769 L18,5.53846154 L18,4.15384615 L18,2.76923077 L16.6153846,1.38461538 L13.8461538,1.38461538 L13.8461538,2.76923077 L16.6153846,2.76923077 L16.6153846,4.15384615 L16.6153846,5.53846154 L16.6153846,11.0769231 L16.6153846,19.3846154 L13.8461538,19.3846154 L1.38461538,19.3846154 L1.38461538,5.53846154 L1.38461538,4.15384615 L1.38461538,2.76923077 L4.15384615,2.76923077 L4.15384615,1.38461538 L1.38461538,1.38461538 L0,2.76923077 L0,2.76923077 Z M12.4615385,4.15384615 L12.4615385,2.76923077 L12.4615385,1.38461538 L12.4615385,0 L9.69230769,0 L5.53846154,0 L5.53846154,1.38461538 L5.53846154,2.76923077 L5.53846154,4.15384615 L12.4615385,4.15384615 L12.4615385,4.15384615 Z M8.30769231,1.38461538 L9,1.38461538 L9.69230769,1.38461538 L9.69230769,2.07692308 L9.69230769,2.76923077 L9,2.76923077 L8.30769231,2.76923077 L8.30769231,2.07692308 L8.30769231,1.38461538 L8.30769231,1.38461538 Z M2.76923077,5.53846154 L2.76923077,9.69230769 L6.92307692,9.69230769 L6.92307692,5.53846154 L2.76923077,5.53846154 L2.76923077,5.53846154 Z M8.30769231,5.53846154 L8.30769231,6.92307692 L15.2307692,6.92307692 L15.2307692,5.53846154 L8.30769231,5.53846154 L8.30769231,5.53846154 Z M8.30769231,8.30769231 L8.30769231,9.69230769 L15.2307692,9.69230769 L15.2307692,8.30769231 L8.30769231,8.30769231 L8.30769231,8.30769231 Z M2.76923077,11.0769231 L2.76923077,12.4615385 L15.2307692,12.4615385 L15.2307692,11.0769231 L2.76923077,11.0769231 L2.76923077,11.0769231 Z M2.76923077,13.8461538 L2.76923077,15.2307692 L15.2307692,15.2307692 L15.2307692,13.8461538 L2.76923077,13.8461538 L2.76923077,13.8461538 Z M2.76923077,16.6153846 L2.76923077,18 L15.2307692,18 L15.2307692,16.6153846 L2.76923077,16.6153846 L2.76923077,16.6153846 Z" id="pages" fill="#5B67BE"></path>
    </g>
</svg>