<?xml version="1.0" encoding="UTF-8" standalone="no"?>
<svg width="14px" height="16px" viewBox="0 0 14 16" version="1.1" xmlns="http://www.w3.org/2000/svg" xmlns:xlink="http://www.w3.org/1999/xlink">
    <!-- Generator: Sketch 3.8.3 (29802) - http://www.bohemiancoding.com/sketch -->
    <title>reports</title>
    <desc>Created with Sketch.</desc>
    <defs></defs>
    <g id="Page-1" stroke="none" stroke-width="1" fill="none" fill-rule="evenodd">
        <g id="entypo/list2" transform="translate(-2.000000, -2.333333)" fill="#000000">
            <rect id="Rectangle-path" transform="translate(10.000000, 10.000000) rotate(-90.000000) translate(-10.000000, -10.000000) " x="0" y="3.55271368e-15" width="20" height="20"></rect>
            <path d="M12.976604,3.83285712 L2.77301323,3.83285712 C2.30328051,3.83285712 1.92285712,4.55443436 1.92285712,5.44541122 C1.92285712,6.33638808 2.30328051,7.05796532 2.77301323,7.05796532 L12.976604,7.05796532 C13.4463368,7.05796532 13.8259014,6.33638808 13.8259014,5.44541122 C13.8259014,4.55443436 13.4463368,3.83285712 12.976604,3.83285712 L12.976604,3.83285712 Z M2.9952132,11.7722511 L15.8526652,11.7722511 C16.4445712,11.7722511 16.9228571,11.0506738 16.9228571,10.159697 C16.9228571,9.26872012 16.4445712,8.54714288 15.8526652,8.54714288 L2.9952132,8.54714288 C2.40330727,8.54714288 1.92393921,9.26872012 1.92393921,10.159697 C1.92393921,11.0506738 2.40330727,11.7722511 2.9952132,11.7722511 L2.9952132,11.7722511 Z M15.8515831,13.1185714 L2.9941311,13.1185714 C2.40222517,13.1185714 1.92285712,13.8401486 1.92285712,14.7311255 C1.92285712,15.6221023 2.40222517,16.3436796 2.9941311,16.3436796 L15.8515831,16.3436796 C16.4434891,16.3436796 16.921775,15.6221023 16.921775,14.7311255 C16.921775,13.8401486 16.4434891,13.1185714 15.8515831,13.1185714 L15.8515831,13.1185714 Z" id="menu-reports" stroke-opacity="0.0571501359" stroke="#000000" stroke-width="0.5" fill="#FFFFFF" fill-rule="evenodd" transform="translate(9.422857, 10.088268) rotate(-90.000000) translate(-9.422857, -10.088268) "></path>
        </g>
    </g>
</svg>