<?xml version="1.0" encoding="UTF-8" standalone="no"?>
<svg width="20px" height="17px" viewBox="0 0 20 17" version="1.1" xmlns="http://www.w3.org/2000/svg" xmlns:xlink="http://www.w3.org/1999/xlink">
    <!-- Generator: Sketch 3.8.3 (29802) - http://www.bohemiancoding.com/sketch -->
    <title>banners</title>
    <desc>Created with Sketch.</desc>
    <defs></defs>
    <g id="Page-1" stroke="none" stroke-width="1" fill="none" fill-rule="evenodd">
        <g id="entypo/archive" transform="translate(0.000000, -1.333333)">
            <rect id="Rectangle-path" x="0" y="0" width="20" height="20"></rect>
            <path d="M17.09,4.793 C17.09,3.804 16.105,3.804 16.105,3.804 L4.278,3.804 C4.278,3.804 3.293,3.804 3.293,4.793 L3.293,5.783 L17.091,5.783 L17.091,4.793 L17.09,4.793 Z M14.133,1.823 L6.248,1.823 C6.248,1.823 5.263,1.823 5.263,2.813 L15.118,2.813 C15.118,1.823 14.133,1.823 14.133,1.823 L14.133,1.823 Z M19.061,5.783 L18.478,5.197 L18.478,6.773 L1.904,6.773 L1.904,5.197 C1.904,5.197 1.904,5.197 1.321,5.783 C0.738,6.369 0.32,6.527 0.555,7.764 C0.788,8.997 1.919,15.759 2.087,16.674 C2.272,17.677 3.292,17.664 3.292,17.664 L17.09,17.664 C17.09,17.664 18.11,17.677 18.294,16.674 C18.463,15.759 19.594,8.997 19.827,7.764 C20.062,6.527 19.644,6.369 19.061,5.783 L19.061,5.783 Z M14.133,11.131 C14.133,11.131 14.133,12.12 13.148,12.12 L7.235,12.12 C6.249,12.12 6.249,11.131 6.249,11.131 L6.249,9.151 L7.629,9.151 L7.629,10.735 L12.75,10.735 L12.75,9.151 L14.133,9.151 L14.133,11.131 L14.133,11.131 Z" id="Shape" fill="#5B67BE" fill-rule="evenodd"></path>
        </g>
    </g>
</svg>